<svg width="160" height="160" viewBox="0 0 160 160" fill="none" xmlns="http://www.w3.org/2000/svg"><defs><linearGradient id="g" x1="28" y1="20" x2="132" y2="142" gradientUnits="userSpaceOnUse"><stop stop-color="#48D7F0"/><stop offset="1" stop-color="#5D8BFF"/></linearGradient><filter id="s" x="0" y="0" width="160" height="160" filterUnits="userSpaceOnUse"><feDropShadow dx="0" dy="8" stdDeviation="8" flood-color="#1ECBE8" flood-opacity=".35"/></filter></defs><g filter="url(#s)"><path d="M80 22C52.4 22 30 42.2 30 67.2c0 15.5 8.6 29.2 21.7 37.3-7.8 8.7-11 18.7-8.8 27.4 1.2 4.6 5.5 7.7 10.2 7.1 8.2-1 14.1-6.3 18.8-13.8 2.8 8.9 8.9 14.8 16.1 14.8 7.1 0 13.2-5.9 16-14.8 4.7 7.5 10.6 12.8 18.8 13.8 4.7.6 9-2.5 10.2-7.1 2.2-8.7-1-18.7-8.8-27.4C121.4 96.4 130 82.7 130 67.2 130 42.2 107.6 22 80 22Z" fill="url(#g)"/><path d="M53 33c12-11 42-15 61 0" stroke="#DDFBFF" stroke-width="7" stroke-linecap="round" opacity=".9"/><circle cx="61" cy="68" r="8" fill="#0E1620"/><circle cx="99" cy="68" r="8" fill="#0E1620"/><circle cx="58" cy="65" r="2.5" fill="white"/><circle cx="96" cy="65" r="2.5" fill="white"/><path d="M65 89c8 8 22 8 30 0" stroke="#0E1620" stroke-width="6" stroke-linecap="round"/></g></svg>